<svg width="32" height="70" viewBox="0 0 32 70" fill="none" xmlns="http://www.w3.org/2000/svg">
<g clip-path="url(#clip0_707_307)">
<g filter="url(#filter0_dddd_707_307)">
<mask id="mask0_707_307" style="mask-type:alpha" maskUnits="userSpaceOnUse" x="0" y="9" width="32" height="67">
<path fill-rule="evenodd" clip-rule="evenodd" d="M16 9.76953H11.8215C10.6578 9.76953 9.71432 10.8061 9.71432 12.0848V16.5212C9.71432 24.6832 6.75656 32.5093 1.49448 38.2705C0.53776 39.318 0 40.7409 0 42.2248V46.1706V75.0664H16H32V46.1706V42.2249C32 40.7409 31.4622 39.318 30.5054 38.2705C25.2434 32.5093 22.2857 24.6833 22.2857 16.5212V12.0849C22.2857 10.8061 21.3422 9.76953 20.1784 9.76953H16Z" fill="white"/>
</mask>
<g mask="url(#mask0_707_307)">
<path fill-rule="evenodd" clip-rule="evenodd" d="M16 9.76953H11.8215C10.6578 9.76953 9.71432 10.8061 9.71432 12.0848V16.5212C9.71432 24.6832 6.75656 32.5093 1.49448 38.2705C0.53776 39.318 0 40.7409 0 42.2248V46.1706V75.0664H16H32V46.1706V42.2249C32 40.7409 31.4622 39.318 30.5054 38.2705C25.2434 32.5093 22.2857 24.6833 22.2857 16.5212V12.0849C22.2857 10.8061 21.3422 9.76953 20.1784 9.76953H16Z" fill="#FDFDFD"/>
<mask id="mask1_707_307" style="mask-type:luminance" maskUnits="userSpaceOnUse" x="0" y="9" width="32" height="67">
<path fill-rule="evenodd" clip-rule="evenodd" d="M16 9.76562H11.8215C10.6578 9.76562 9.71432 10.8022 9.71432 12.0809V16.5173C9.71432 24.6793 6.75656 32.5054 1.49448 38.2666C0.53776 39.3141 0 40.737 0 42.2209V46.1667V75.0625H16H32V46.1667V42.221C32 40.737 31.4622 39.3141 30.5054 38.2666C25.2434 32.5054 22.2857 24.6794 22.2857 16.5173V12.081C22.2857 10.8022 21.3422 9.76562 20.1784 9.76562H16Z" fill="black" fill-opacity="0.3"/>
</mask>
<g mask="url(#mask1_707_307)">
<path d="M15.9996 9.76763H16.3996V9.32812H15.9996V9.76763ZM-0.000390649 75.0645H-0.400391V75.504H-0.000390649V75.0645ZM31.9996 75.0645V75.504H32.3996V75.0645H31.9996ZM15.9996 9.76763H15.5996V10.2071H15.9996V9.76763ZM11.8211 10.2071H15.9996V9.32812H11.8211V10.2071ZM10.1139 12.0829C10.1139 11.0469 10.8782 10.2071 11.8211 10.2071V9.32812C10.4364 9.32812 9.31393 10.5615 9.31393 12.0829H10.1139ZM10.1139 16.5193V12.0829H9.31393V16.5193H10.1139ZM1.77649 38.5799C7.11377 32.7363 10.1139 24.7981 10.1139 16.5193H9.31393C9.31393 24.5645 6.39849 32.2786 1.21177 37.9572L1.77649 38.5799ZM0.399609 42.2229C0.399609 40.8558 0.895049 39.5449 1.77649 38.5799L1.21177 37.9572C0.179689 39.0872 -0.400391 40.6221 -0.400391 42.2229H0.399609ZM0.399609 46.1687V42.2229H-0.400391V46.1687H0.399609ZM0.399609 75.0645V46.1687H-0.400391V75.0645H0.399609ZM15.9996 74.625H-0.000390649V75.504H15.9996V74.625ZM15.9996 75.504H31.9996V74.625H15.9996V75.504ZM32.3996 75.0645V46.1687H31.5996V75.0645H32.3996ZM32.3996 46.1687V42.223H31.5996V46.1687H32.3996ZM32.3996 42.223C32.3996 40.6222 31.8194 39.0872 30.7874 37.9572L30.2227 38.5799C31.1042 39.5449 31.5996 40.8558 31.5996 42.223H32.3996ZM30.7874 37.9572C25.6007 32.2786 22.6853 24.5645 22.6853 16.5193H21.8853C21.8853 24.7982 24.8854 32.7363 30.2227 38.5799L30.7874 37.9572ZM22.6853 16.5193V12.083H21.8853V16.5193H22.6853ZM22.6853 12.083C22.6853 10.5615 21.5627 9.32812 20.178 9.32812V10.2071C21.121 10.2071 21.8853 11.0469 21.8853 12.083H22.6853ZM20.178 9.32812H15.9996V10.2071H20.178V9.32812Z" fill="black" fill-opacity="0.3"/>
</g>
<g filter="url(#filter1_f_707_307)">
<mask id="mask2_707_307" style="mask-type:luminance" maskUnits="userSpaceOnUse" x="0" y="9" width="32" height="67">
<path fill-rule="evenodd" clip-rule="evenodd" d="M16 9.76562H11.8215C10.6578 9.76562 9.71432 10.8022 9.71432 12.0809V16.5173C9.71432 24.6793 6.75656 32.5054 1.49448 38.2666C0.53776 39.3141 0 40.737 0 42.2209V46.1667V75.0625H16H32V46.1667V42.221C32 40.737 31.4622 39.3141 30.5054 38.2666C25.2434 32.5054 22.2857 24.6794 22.2857 16.5173V12.081C22.2857 10.8022 21.3422 9.76562 20.1784 9.76562H16Z" fill="black" fill-opacity="0.25"/>
</mask>
<g mask="url(#mask2_707_307)">
<path d="M16 9.76643H17.7143V7.88281H16V9.76643ZM-3.58326e-05 75.0634H-1.71436V76.9471H-3.58326e-05V75.0634ZM32 75.0634V76.9471H33.7142V75.0634H32ZM16 9.76643H14.2856V11.65H16V9.76643ZM11.8215 11.65L16 11.65V7.88281H11.8215V11.65ZM11.4285 12.0817C11.4285 11.8432 11.6044 11.65 11.8215 11.65V7.88281C9.71092 7.88281 7.99996 9.76273 7.99996 12.0817H11.4285ZM11.4285 16.5181V12.0817H7.99996V16.5181H11.4285ZM2.70453 39.6016C8.28933 33.4871 11.4285 25.1809 11.4285 16.5181H7.99996C7.99996 24.1794 5.22364 31.5254 0.284444 36.9331L2.70453 39.6016ZM1.71428 42.2217C1.71428 41.2385 2.07061 40.2957 2.70453 39.6016L0.284444 36.9331C-0.995076 38.334 -1.71436 40.237 -1.71436 42.2217H1.71428ZM1.71428 46.1675V42.2217H-1.71436V46.1675H1.71428ZM1.71428 75.0634V46.1675H-1.71436V75.0634H1.71428ZM16 73.1797H-3.58326e-05V76.9471H16V73.1797ZM16 76.9471H32V73.1806L16 73.1797V76.9471ZM33.7142 75.0634V46.1675H30.2856V75.0634H33.7142ZM33.7142 46.1675V42.2218H30.2856V46.1675H33.7142ZM33.7142 42.2218C33.7142 40.237 32.995 38.334 31.7155 36.9331L29.2954 39.6016C29.9293 40.2957 30.2856 41.2385 30.2856 42.2218H33.7142ZM31.7155 36.9331C26.7762 31.5254 24 24.1794 24 16.5181H20.5714C20.5714 25.1809 23.7106 33.4871 29.2954 39.6016L31.7155 36.9331ZM24 16.5181V12.0818H20.5714V16.5181H24ZM24 12.0818C24 9.76273 22.289 7.88281 20.1784 7.88281V11.65C20.3954 11.65 20.5714 11.8433 20.5714 12.0818H24ZM20.1784 7.88281H16V11.65H20.1784V7.88281Z" fill="black" fill-opacity="0.25"/>
</g>
</g>
<g filter="url(#filter2_f_707_307)">
<mask id="mask3_707_307" style="mask-type:luminance" maskUnits="userSpaceOnUse" x="0" y="9" width="32" height="67">
<path fill-rule="evenodd" clip-rule="evenodd" d="M16 9.76562H11.8215C10.6578 9.76562 9.71432 10.8022 9.71432 12.0809V16.5173C9.71432 24.6793 6.75656 32.5054 1.49448 38.2666C0.53776 39.3141 0 40.737 0 42.2209V46.1667V75.0625H16H32V46.1667V42.221C32 40.737 31.4622 39.3141 30.5054 38.2666C25.2434 32.5054 22.2857 24.6794 22.2857 16.5173V12.081C22.2857 10.8022 21.3422 9.76562 20.1784 9.76562H16Z" fill="black" fill-opacity="0.4"/>
</mask>
<g mask="url(#mask3_707_307)">
<path d="M16.0001 9.76472H16.5681V9.14062H16.0001V9.76472ZM0.000128903 75.0624H-0.567871V75.6865H0.000128903V75.0624ZM32.0001 75.0624V75.6865H32.5681V75.0624H32.0001ZM16.0001 9.76472H15.4321V10.3888H16.0001V9.76472ZM11.8216 10.3888H16.0001V9.14062H11.8216V10.3888ZM10.2824 12.08C10.2824 11.146 10.9716 10.3888 11.8216 10.3888V9.14062C10.3441 9.14062 9.14645 10.4567 9.14645 12.08H10.2824ZM10.2824 16.5164V12.08H9.14645V16.5164H10.2824ZM1.89557 38.7077C7.26453 32.8295 10.2824 24.8443 10.2824 16.5164H9.14645C9.14645 24.5125 6.24877 32.1795 1.09373 37.8235L1.89557 38.7077ZM0.568129 42.22C0.568129 40.9019 1.04581 39.6381 1.89557 38.7077L1.09373 37.8235C0.0300486 38.9881 -0.567871 40.5701 -0.567871 42.22H0.568129ZM0.568129 46.1658V42.22H-0.567871V46.1658H0.568129ZM0.568129 75.0624V46.1658H-0.567871V75.0624H0.568129ZM16.0001 74.4383H0.000128903V75.6865H16.0001V74.4383ZM16.0001 75.6865H32.0001V74.4383H16.0001V75.6865ZM32.5681 75.0624V46.1658H31.4321V75.0624H32.5681ZM32.5681 46.1658V42.2201H31.4321V46.1658H32.5681ZM32.5681 42.2201C32.5681 40.5701 31.9702 38.9882 30.9065 37.8236L30.1047 38.7078C30.9544 39.6381 31.4321 40.9019 31.4321 42.2201H32.5681ZM30.9065 37.8236C25.7514 32.1795 22.8538 24.5125 22.8538 16.5164H21.7178C21.7178 24.8443 24.7356 32.8295 30.1047 38.7078L30.9065 37.8236ZM22.8538 16.5164V12.0801H21.7178V16.5164H22.8538ZM22.8538 12.0801C22.8538 10.4567 21.656 9.14062 20.1785 9.14062V10.3888C21.0287 10.3888 21.7178 11.146 21.7178 12.0801H22.8538ZM20.1785 9.14062H16.0001V10.3888H20.1785V9.14062Z" fill="black" fill-opacity="0.4"/>
</g>
</g>
<g filter="url(#filter3_f_707_307)">
<path d="M15.8211 9.77344C14.6573 9.77344 13.1424 10.81 13.1424 12.0887V16.5251C13.1424 24.6871 12.4703 32.5132 7.20835 38.2744C6.25163 39.3219 5.71387 40.7448 5.71387 42.2287V75.0703H26.2853V42.2287C26.2853 40.7448 25.7475 39.3219 24.7908 38.2744C19.5287 32.5132 18.8567 24.6871 18.8567 16.5251V12.0887C18.8567 10.81 17.3418 9.77344 16.178 9.77344H15.8211Z" fill="white"/>
</g>
<path d="M0 44.5547H32V77.5805H0V44.5547Z" fill="#FFEE00"/>
<path d="M0 44.5547H32V77.5805H0V44.5547Z" fill="url(#paint0_linear_707_307)"/>
<path d="M0 44.6758H32V70.0047H0V44.6758Z" fill="url(#paint1_linear_707_307)"/>
<path d="M0.199707 44.7734H31.7997V77.3597H0.199707V44.7734Z" stroke="black" stroke-opacity="0.3" stroke-width="0.5"/>
</g>
<path d="M11.4287 3.92467C11.4287 3.66299 11.5765 3.42874 11.7995 3.3368L19.7995 0.0405399C20.1731 -0.113373 20.5716 0.190057 20.5716 0.628415V10.2705H11.4287V3.92467Z" fill="#FFEE00"/>
<path d="M11.6284 3.92737C11.6284 3.75728 11.7245 3.60495 11.8695 3.54526L19.8695 0.249007C20.1123 0.148977 20.3713 0.346137 20.3713 0.631109V10.0534H11.6284V3.92737Z" stroke="black" stroke-opacity="0.3" stroke-width="0.5"/>
</g>
</g>
<defs>
<filter id="filter0_dddd_707_307" x="-12.8571" y="-18.6027" width="57.7143" height="100.812" filterUnits="userSpaceOnUse" color-interpolation-filters="sRGB">
<feFlood flood-opacity="0" result="BackgroundImageFix"/>
<feColorMatrix in="SourceAlpha" type="matrix" values="0 0 0 0 0 0 0 0 0 0 0 0 0 0 0 0 0 0 127 0" result="hardAlpha"/>
<feOffset dy="-0.714286"/>
<feGaussianBlur stdDeviation="0.371652"/>
<feColorMatrix type="matrix" values="0 0 0 0 0 0 0 0 0 0 0 0 0 0 0 0 0 0 0.026 0"/>
<feBlend mode="normal" in2="BackgroundImageFix" result="effect1_dropShadow_707_307"/>
<feColorMatrix in="SourceAlpha" type="matrix" values="0 0 0 0 0 0 0 0 0 0 0 0 0 0 0 0 0 0 127 0" result="hardAlpha"/>
<feOffset/>
<feGaussianBlur stdDeviation="1.04464"/>
<feColorMatrix type="matrix" values="0 0 0 0 0 0 0 0 0 0 0 0 0 0 0 0 0 0 0.04 0"/>
<feBlend mode="normal" in2="effect1_dropShadow_707_307" result="effect2_dropShadow_707_307"/>
<feColorMatrix in="SourceAlpha" type="matrix" values="0 0 0 0 0 0 0 0 0 0 0 0 0 0 0 0 0 0 127 0" result="hardAlpha"/>
<feOffset dy="-0.714286"/>
<feGaussianBlur stdDeviation="2.80246"/>
<feColorMatrix type="matrix" values="0 0 0 0 0 0 0 0 0 0 0 0 0 0 0 0 0 0 0.054 0"/>
<feBlend mode="normal" in2="effect2_dropShadow_707_307" result="effect3_dropShadow_707_307"/>
<feColorMatrix in="SourceAlpha" type="matrix" values="0 0 0 0 0 0 0 0 0 0 0 0 0 0 0 0 0 0 127 0" result="hardAlpha"/>
<feOffset dy="-5.71429"/>
<feGaussianBlur stdDeviation="6.42857"/>
<feColorMatrix type="matrix" values="0 0 0 0 0 0 0 0 0 0 0 0 0 0 0 0 0 0 0.08 0"/>
<feBlend mode="normal" in2="effect3_dropShadow_707_307" result="effect4_dropShadow_707_307"/>
<feBlend mode="normal" in="SourceGraphic" in2="effect4_dropShadow_707_307" result="shape"/>
</filter>
<filter id="filter1_f_707_307" x="-7.14286" y="2.62277" width="46.2857" height="79.5826" filterUnits="userSpaceOnUse" color-interpolation-filters="sRGB">
<feFlood flood-opacity="0" result="BackgroundImageFix"/>
<feBlend mode="normal" in="SourceGraphic" in2="BackgroundImageFix" result="shape"/>
<feGaussianBlur stdDeviation="3.57143" result="effect1_foregroundBlur_707_307"/>
</filter>
<filter id="filter2_f_707_307" x="-4.28572" y="5.47991" width="40.5714" height="73.8683" filterUnits="userSpaceOnUse" color-interpolation-filters="sRGB">
<feFlood flood-opacity="0" result="BackgroundImageFix"/>
<feBlend mode="normal" in="SourceGraphic" in2="BackgroundImageFix" result="shape"/>
<feGaussianBlur stdDeviation="2.14286" result="effect1_foregroundBlur_707_307"/>
</filter>
<filter id="filter3_f_707_307" x="1.42815" y="5.48772" width="29.1427" height="73.8683" filterUnits="userSpaceOnUse" color-interpolation-filters="sRGB">
<feFlood flood-opacity="0" result="BackgroundImageFix"/>
<feBlend mode="normal" in="SourceGraphic" in2="BackgroundImageFix" result="shape"/>
<feGaussianBlur stdDeviation="2.14286" result="effect1_foregroundBlur_707_307"/>
</filter>
<linearGradient id="paint0_linear_707_307" x1="32" y1="61.7279" x2="0" y2="61.7279" gradientUnits="userSpaceOnUse">
<stop stop-opacity="0"/>
<stop offset="0.166394" stop-color="white" stop-opacity="0.08"/>
<stop offset="0.516647" stop-color="white" stop-opacity="0.16"/>
<stop offset="0.824577" stop-color="white" stop-opacity="0.08"/>
<stop offset="1" stop-opacity="0"/>
</linearGradient>
<linearGradient id="paint1_linear_707_307" x1="0" y1="56.3659" x2="32" y2="56.3659" gradientUnits="userSpaceOnUse">
<stop stop-opacity="0.12"/>
<stop offset="0.173337" stop-opacity="0"/>
<stop offset="0.831435" stop-opacity="0"/>
<stop offset="1" stop-opacity="0.12"/>
</linearGradient>
<clipPath id="clip0_707_307">
<rect width="32" height="70" fill="white"/>
</clipPath>
</defs>
</svg>
