<svg width="66" height="112" viewBox="0 0 66 112" fill="none" xmlns="http://www.w3.org/2000/svg">
<g filter="url(#filter0_dddd_331_69)">
<mask id="mask0_331_69" style="mask-type:alpha" maskUnits="userSpaceOnUse" x="13" y="30" width="40" height="75">
<path fill-rule="evenodd" clip-rule="evenodd" d="M33 30.1128H27.7769C26.3222 30.1128 25.1429 31.2921 25.1429 32.7468V37.7939C25.1429 47.0794 21.4457 55.9828 14.8681 62.537C13.6722 63.7287 13 65.3475 13 67.0357V71.5246V104.398H33H53V71.5246V67.0358C53 65.3475 52.3278 63.7287 51.1318 62.537C44.5543 55.9828 40.8571 47.0795 40.8571 37.7939V32.7469C40.8571 31.2921 39.6778 30.1128 38.223 30.1128H33Z" fill="white"/>
</mask>
<g mask="url(#mask0_331_69)">
<path fill-rule="evenodd" clip-rule="evenodd" d="M33 30.1128H27.7769C26.3222 30.1128 25.1429 31.2921 25.1429 32.7468V37.7939C25.1429 47.0794 21.4457 55.9828 14.8681 62.537C13.6722 63.7287 13 65.3475 13 67.0357V71.5246V104.398H33H53V71.5246V67.0358C53 65.3475 52.3278 63.7287 51.1318 62.537C44.5543 55.9828 40.8571 47.0795 40.8571 37.7939V32.7469C40.8571 31.2921 39.6778 30.1128 38.223 30.1128H33Z" fill="#FDFDFD"/>
<mask id="mask1_331_69" style="mask-type:luminance" maskUnits="userSpaceOnUse" x="13" y="30" width="40" height="75">
<path fill-rule="evenodd" clip-rule="evenodd" d="M33 30.1128H27.7769C26.3222 30.1128 25.1429 31.2921 25.1429 32.7468V37.7939C25.1429 47.0794 21.4457 55.9828 14.8681 62.537C13.6722 63.7287 13 65.3475 13 67.0357V71.5246V104.398H33H53V71.5246V67.0358C53 65.3475 52.3278 63.7287 51.1318 62.537C44.5543 55.9828 40.8571 47.0795 40.8571 37.7939V32.7469C40.8571 31.2921 39.6778 30.1128 38.223 30.1128H33Z" fill="black" fill-opacity="0.3"/>
</mask>
<g mask="url(#mask1_331_69)">
<path d="M33 30.1128H33.5V29.6128H33V30.1128ZM13 104.398H12.5V104.898H13V104.398ZM53 104.398V104.898H53.5V104.398H53ZM33 30.1128H32.5V30.6128H33V30.1128ZM27.7769 30.6128H33V29.6128H27.7769V30.6128ZM25.6429 32.7468C25.6429 31.5682 26.5983 30.6128 27.7769 30.6128V29.6128C26.046 29.6128 24.6429 31.0159 24.6429 32.7468H25.6429ZM25.6429 37.7939V32.7468H24.6429V37.7939H25.6429ZM15.2211 62.8912C21.8927 56.2432 25.6429 47.2123 25.6429 37.7939H24.6429C24.6429 46.9465 20.9986 55.7225 14.5152 62.1828L15.2211 62.8912ZM13.5 67.0357C13.5 65.4804 14.1193 63.989 15.2211 62.8912L14.5152 62.1828C13.2251 63.4683 12.5 65.2145 12.5 67.0357H13.5ZM13.5 71.5246V67.0357H12.5V71.5246H13.5ZM13.5 104.398V71.5246H12.5V104.398H13.5ZM33 103.898H13V104.898H33V103.898ZM33 104.898H53V103.898H33V104.898ZM53.5 104.398V71.5246H52.5V104.398H53.5ZM53.5 71.5246V67.0358H52.5V71.5246H53.5ZM53.5 67.0358C53.5 65.2146 52.7748 63.4683 51.4848 62.1828L50.7789 62.8912C51.8807 63.989 52.5 65.4804 52.5 67.0358H53.5ZM51.4848 62.1828C45.0014 55.7225 41.3571 46.9465 41.3571 37.7939H40.3571C40.3571 47.2124 44.1072 56.2432 50.7789 62.8912L51.4848 62.1828ZM41.3571 37.7939V32.7469H40.3571V37.7939H41.3571ZM41.3571 32.7469C41.3571 31.016 39.9539 29.6128 38.223 29.6128V30.6128C39.4017 30.6128 40.3571 31.5682 40.3571 32.7469H41.3571ZM38.223 29.6128H33V30.6128H38.223V29.6128Z" fill="black" fill-opacity="0.3"/>
</g>
<g filter="url(#filter1_f_331_69)">
<mask id="mask2_331_69" style="mask-type:luminance" maskUnits="userSpaceOnUse" x="13" y="30" width="40" height="75">
<path fill-rule="evenodd" clip-rule="evenodd" d="M33 30.1128H27.7769C26.3222 30.1128 25.1429 31.2921 25.1429 32.7468V37.7939C25.1429 47.0794 21.4457 55.9828 14.8681 62.537C13.6722 63.7287 13 65.3475 13 67.0357V71.5246V104.398H33H53V71.5246V67.0358C53 65.3475 52.3278 63.7287 51.1318 62.537C44.5543 55.9828 40.8571 47.0795 40.8571 37.7939V32.7469C40.8571 31.2921 39.6778 30.1128 38.223 30.1128H33Z" fill="black" fill-opacity="0.25"/>
</mask>
<g mask="url(#mask2_331_69)">
<path d="M32.9998 30.1126H35.1427V27.9697H32.9998V30.1126ZM12.9998 104.398H10.8569V106.541H12.9998V104.398ZM52.9998 104.398V106.541H55.1426V104.398H52.9998ZM32.9998 30.1126H30.8569V32.2555H32.9998V30.1126ZM27.7767 32.2554L32.9998 32.2555V27.9697H27.7767V32.2554ZM27.2855 32.7466C27.2855 32.4753 27.5054 32.2554 27.7767 32.2554V27.9697C25.1385 27.9697 22.9998 30.1084 22.9998 32.7466H27.2855ZM27.2855 37.7937V32.7466H22.9998V37.7937H27.2855ZM16.3805 64.0547C23.3615 57.0985 27.2855 47.6489 27.2855 37.7937H22.9998C22.9998 46.5096 19.5294 54.8668 13.3554 61.0189L16.3805 64.0547ZM15.1427 67.0355C15.1427 65.9169 15.5881 64.8443 16.3805 64.0547L13.3554 61.0189C11.756 62.6126 10.8569 64.7776 10.8569 67.0355H15.1427ZM15.1427 71.5244V67.0355H10.8569V71.5244H15.1427ZM15.1427 104.398V71.5244H10.8569V104.398H15.1427ZM32.9998 102.255H12.9998V106.541H32.9998V102.255ZM32.9998 106.541L52.9998 106.541V102.256L32.9998 102.255V106.541ZM55.1426 104.398V71.5244H50.8569V104.398H55.1426ZM55.1426 71.5244V67.0356H50.8569V71.5244H55.1426ZM55.1426 67.0356C55.1426 64.7776 54.2436 62.6126 52.6442 61.0189L49.6191 64.0547C50.4115 64.8443 50.8569 65.9169 50.8569 67.0356H55.1426ZM52.6442 61.0189C46.4701 54.8668 42.9998 46.5096 42.9998 37.7937H38.7141C38.7141 47.6489 42.6381 57.0985 49.6191 64.0547L52.6442 61.0189ZM42.9998 37.7937V32.7467H38.7141V37.7937H42.9998ZM42.9998 32.7467C42.9998 30.1084 40.8611 27.9697 38.2228 27.9697V32.2555C38.4941 32.2555 38.7141 32.4754 38.7141 32.7467H42.9998ZM38.2228 27.9697H32.9998V32.2555H38.2228V27.9697Z" fill="black" fill-opacity="0.25"/>
</g>
</g>
<g filter="url(#filter2_f_331_69)">
<mask id="mask3_331_69" style="mask-type:luminance" maskUnits="userSpaceOnUse" x="13" y="30" width="40" height="75">
<path fill-rule="evenodd" clip-rule="evenodd" d="M33 30.1128H27.7769C26.3222 30.1128 25.1429 31.2921 25.1429 32.7468V37.7939C25.1429 47.0794 21.4457 55.9828 14.8681 62.537C13.6722 63.7287 13 65.3475 13 67.0357V71.5246V104.398H33H53V71.5246V67.0358C53 65.3475 52.3278 63.7287 51.1318 62.537C44.5543 55.9828 40.8571 47.0795 40.8571 37.7939V32.7469C40.8571 31.2921 39.6778 30.1128 38.223 30.1128H33Z" fill="black" fill-opacity="0.4"/>
</mask>
<g mask="url(#mask3_331_69)">
<path d="M33 30.1128H33.71V29.4028H33V30.1128ZM13 104.399H12.29V105.109H13V104.399ZM53 104.399V105.109H53.71V104.399H53ZM33 30.1128H32.29V30.8228H33V30.1128ZM27.7769 30.8228H33V29.4028H27.7769V30.8228ZM25.8529 32.7468C25.8529 31.6842 26.7143 30.8228 27.7769 30.8228V29.4028C25.93 29.4028 24.4329 30.9 24.4329 32.7468H25.8529ZM25.8529 37.7939V32.7468H24.4329V37.7939H25.8529ZM15.3693 63.0399C22.0805 56.3525 25.8529 47.2682 25.8529 37.7939H24.4329C24.4329 46.8907 20.8108 55.6131 14.367 62.034L15.3693 63.0399ZM13.71 67.0357C13.71 65.5362 14.3071 64.0984 15.3693 63.0399L14.367 62.034C13.0374 63.3589 12.29 65.1587 12.29 67.0357H13.71ZM13.71 71.5246V67.0357H12.29V71.5246H13.71ZM13.71 104.399V71.5246H12.29V104.399H13.71ZM33 103.689H13V105.109H33V103.689ZM33 105.109H53V103.689H33V105.109ZM53.71 104.399V71.5246H52.29V104.399H53.71ZM53.71 71.5246V67.0358H52.29V71.5246H53.71ZM53.71 67.0358C53.71 65.1587 52.9626 63.359 51.633 62.0341L50.6307 63.04C51.6929 64.0984 52.29 65.5362 52.29 67.0358H53.71ZM51.633 62.0341C45.1891 55.6131 41.5671 46.8907 41.5671 37.7939H40.1471C40.1471 47.2682 43.9194 56.3526 50.6307 63.04L51.633 62.0341ZM41.5671 37.7939V32.7469H40.1471V37.7939H41.5671ZM41.5671 32.7469C41.5671 30.9 40.0699 29.4028 38.223 29.4028V30.8228C39.2857 30.8228 40.1471 31.6842 40.1471 32.7469H41.5671ZM38.223 29.4028H33V30.8228H38.223V29.4028Z" fill="black" fill-opacity="0.4"/>
</g>
</g>
<g filter="url(#filter3_f_331_69)">
<path d="M32.7766 30.1128C31.3219 30.1128 29.4283 31.2921 29.4283 32.7468V37.7939C29.4283 47.0794 28.5882 55.9828 22.0107 62.537C20.8148 63.7287 20.1426 65.3475 20.1426 67.0357V104.398H45.8569V67.0357C45.8569 65.3475 45.1846 63.7287 43.9887 62.537C37.4112 55.9828 36.5711 47.0794 36.5711 37.7939V32.7468C36.5711 31.2921 34.6775 30.1128 33.2228 30.1128H32.7766Z" fill="white"/>
</g>
<path d="M13 69.6841H53V107.256H13V69.6841Z" fill="#FFEE00"/>
<path d="M13 69.6841H53V107.256H13V69.6841Z" fill="url(#paint0_linear_331_69)"/>
<path d="M13 69.6841H53V107.256H13V69.6841Z" fill="url(#paint1_linear_331_69)"/>
<path d="M13.25 69.9341H52.75V107.006H13.25V69.9341Z" stroke="black" stroke-opacity="0.3" stroke-width="0.5"/>
</g>
<path d="M27.2856 23.4649C27.2856 23.1672 27.4703 22.9007 27.7491 22.7961L37.7491 19.0461C38.2161 18.871 38.7142 19.2162 38.7142 19.7149V30.6842H27.2856V23.4649Z" fill="#FFEE00"/>
<path d="M27.5356 23.4647C27.5356 23.2712 27.6557 23.0979 27.8369 23.03L37.8369 19.28C38.1404 19.1662 38.4642 19.3905 38.4642 19.7147V30.434H27.5356V23.4647Z" stroke="black" stroke-opacity="0.3" stroke-width="0.5"/>
</g>
<defs>
<filter id="filter0_dddd_331_69" x="0.14286" y="0.42857" width="65.7143" height="111.113" filterUnits="userSpaceOnUse" color-interpolation-filters="sRGB">
<feFlood flood-opacity="0" result="BackgroundImageFix"/>
<feColorMatrix in="SourceAlpha" type="matrix" values="0 0 0 0 0 0 0 0 0 0 0 0 0 0 0 0 0 0 127 0" result="hardAlpha"/>
<feOffset dy="-0.714286"/>
<feGaussianBlur stdDeviation="0.371652"/>
<feColorMatrix type="matrix" values="0 0 0 0 0 0 0 0 0 0 0 0 0 0 0 0 0 0 0.026 0"/>
<feBlend mode="normal" in2="BackgroundImageFix" result="effect1_dropShadow_331_69"/>
<feColorMatrix in="SourceAlpha" type="matrix" values="0 0 0 0 0 0 0 0 0 0 0 0 0 0 0 0 0 0 127 0" result="hardAlpha"/>
<feOffset/>
<feGaussianBlur stdDeviation="1.04464"/>
<feColorMatrix type="matrix" values="0 0 0 0 0 0 0 0 0 0 0 0 0 0 0 0 0 0 0.04 0"/>
<feBlend mode="normal" in2="effect1_dropShadow_331_69" result="effect2_dropShadow_331_69"/>
<feColorMatrix in="SourceAlpha" type="matrix" values="0 0 0 0 0 0 0 0 0 0 0 0 0 0 0 0 0 0 127 0" result="hardAlpha"/>
<feOffset dy="-0.714286"/>
<feGaussianBlur stdDeviation="2.80246"/>
<feColorMatrix type="matrix" values="0 0 0 0 0 0 0 0 0 0 0 0 0 0 0 0 0 0 0.054 0"/>
<feBlend mode="normal" in2="effect2_dropShadow_331_69" result="effect3_dropShadow_331_69"/>
<feColorMatrix in="SourceAlpha" type="matrix" values="0 0 0 0 0 0 0 0 0 0 0 0 0 0 0 0 0 0 127 0" result="hardAlpha"/>
<feOffset dy="-5.71429"/>
<feGaussianBlur stdDeviation="6.42857"/>
<feColorMatrix type="matrix" values="0 0 0 0 0 0 0 0 0 0 0 0 0 0 0 0 0 0 0.08 0"/>
<feBlend mode="normal" in2="effect3_dropShadow_331_69" result="effect4_dropShadow_331_69"/>
<feBlend mode="normal" in="SourceGraphic" in2="effect4_dropShadow_331_69" result="shape"/>
</filter>
<filter id="filter1_f_331_69" x="5.85714" y="22.9699" width="54.2857" height="88.5714" filterUnits="userSpaceOnUse" color-interpolation-filters="sRGB">
<feFlood flood-opacity="0" result="BackgroundImageFix"/>
<feBlend mode="normal" in="SourceGraphic" in2="BackgroundImageFix" result="shape"/>
<feGaussianBlur stdDeviation="3.57143" result="effect1_foregroundBlur_331_69"/>
</filter>
<filter id="filter2_f_331_69" x="8.71428" y="25.8271" width="48.5714" height="82.8571" filterUnits="userSpaceOnUse" color-interpolation-filters="sRGB">
<feFlood flood-opacity="0" result="BackgroundImageFix"/>
<feBlend mode="normal" in="SourceGraphic" in2="BackgroundImageFix" result="shape"/>
<feGaussianBlur stdDeviation="2.14286" result="effect1_foregroundBlur_331_69"/>
</filter>
<filter id="filter3_f_331_69" x="15.8569" y="25.8271" width="34.2858" height="82.8571" filterUnits="userSpaceOnUse" color-interpolation-filters="sRGB">
<feFlood flood-opacity="0" result="BackgroundImageFix"/>
<feBlend mode="normal" in="SourceGraphic" in2="BackgroundImageFix" result="shape"/>
<feGaussianBlur stdDeviation="2.14286" result="effect1_foregroundBlur_331_69"/>
</filter>
<linearGradient id="paint0_linear_331_69" x1="53" y1="89.2213" x2="13" y2="89.2213" gradientUnits="userSpaceOnUse">
<stop stop-opacity="0"/>
<stop offset="0.166394" stop-color="white" stop-opacity="0.08"/>
<stop offset="0.516647" stop-color="white" stop-opacity="0.16"/>
<stop offset="0.824577" stop-color="white" stop-opacity="0.08"/>
<stop offset="1" stop-opacity="0"/>
</linearGradient>
<linearGradient id="paint1_linear_331_69" x1="13" y1="87.0248" x2="53" y2="87.0248" gradientUnits="userSpaceOnUse">
<stop stop-opacity="0.12"/>
<stop offset="0.173337" stop-opacity="0"/>
<stop offset="0.831435" stop-opacity="0"/>
<stop offset="1" stop-opacity="0.12"/>
</linearGradient>
</defs>
</svg>
